<svg xmlns="http://www.w3.org/2000/svg" viewBox="0 0 714.29 619.04"><defs><style>.cls-1{fill:#121419;}</style></defs><g id="Layer_2" data-name="Layer 2"><g id="Artwork"><path class="cls-1" d="M428.57,357.13a71.43,71.43,0,1,1-71.42-71.42,23.81,23.81,0,1,1,0,47.61A23.81,23.81,0,1,0,381,357.13a23.81,23.81,0,1,1,47.61,0Z"/><path class="cls-1" d="M104.6,609.68c-139.47-139.47-139.47-365.61,0-505.08s365.61-139.47,505.08,0,139.47,365.61,0,505.08A23.81,23.81,0,0,1,576,576c120.88-120.88,120.88-316.85,0-437.73s-316.85-120.88-437.73,0S17.4,455.13,138.28,576a23.81,23.81,0,1,1-33.68,33.67Z"/><path class="cls-1" d="M357.15,619C212.5,619,95.24,501.79,95.24,357.14S212.5,95.23,357.15,95.23s261.9,117.26,261.9,261.91a23.81,23.81,0,1,1-47.61,0c0-118.35-96-214.29-214.29-214.29S142.86,238.79,142.86,357.14s95.93,214.29,214.29,214.29a23.81,23.81,0,1,1,0,47.61Z"/><path class="cls-1" d="M475,475a166.67,166.67,0,1,1,0-235.7A23.81,23.81,0,0,1,441.32,273a119,119,0,1,0,0,168.35A23.81,23.81,0,0,1,475,475Z"/></g></g></svg>