<svg id="Layer_2" data-name="Layer 2" xmlns="http://www.w3.org/2000/svg" viewBox="0 0 725.7 623.57"><defs><style>.cls-1{fill:#31343e;}.cls-2{fill:none;}</style></defs><path class="cls-1" d="M608.24,471.76a95.72,95.72,0,0,1,19.42,104.55,94.64,94.64,0,0,1-35.4,41.9,99.09,99.09,0,0,1-12.13,6.64,94.7,94.7,0,0,1-12.94,4.78,95.77,95.77,0,0,1-13.48,2.81,93.14,93.14,0,0,1-27.36-.4,97.49,97.49,0,0,1-13.3-3.18,95.16,95.16,0,0,1-12.66-5.11,96.55,96.55,0,0,1-11.75-6.89,91.58,91.58,0,0,1-37.71-94.58,90.37,90.37,0,0,1,25.43-45.92,89.18,89.18,0,0,0-18,97.46,88.24,88.24,0,0,0,33,39A92.17,92.17,0,0,0,502.65,619a86.8,86.8,0,0,0,24.59,7,95.51,95.51,0,0,0,12.76.74,86,86,0,0,0,78.66-54.17,85.09,85.09,0,0,0,4-49A83.9,83.9,0,0,0,599,481a6.5,6.5,0,0,1,9-9.36l.12.12Z" transform="translate(-177.57 -177.59)"/><path class="cls-1" d="M707.21,457.32a184.1,184.1,0,0,1,16,83.09,182.05,182.05,0,0,1-6.49,41.53A179.5,179.5,0,0,1,701,620.52a177.53,177.53,0,0,0,15.71-80.13,176.4,176.4,0,0,0-6.14-40.07,172.52,172.52,0,0,0-15-37.23A6.51,6.51,0,0,1,707,456.85c.08.14.15.29.22.44Z" transform="translate(-177.57 -177.59)"/><path class="cls-1" d="M408.54,672.29A193.81,193.81,0,0,1,381.64,637,189.19,189.19,0,0,1,364,596.51l-.42-1.32-.35-1.33-.71-2.67c-.46-1.78-1-3.55-1.39-5.34l-1.15-5.4-.57-2.7c-.19-.9-.31-1.81-.46-2.72-.58-3.63-1.22-7.24-1.54-10.9l-.58-5.47-.32-5.5A181.85,181.85,0,0,1,462.09,377.69a180,180,0,0,0-64.59,55,176.41,176.41,0,0,0-32.94,119.87l.5,5.23.76,5.2c.43,3.48,1.17,6.9,1.85,10.33.18.85.32,1.71.54,2.56l.64,2.54,1.28,5.08c.47,1.69,1,3.35,1.51,5l.77,2.5.38,1.25.45,1.23a178.07,178.07,0,0,0,18.1,37.52,181.53,181.53,0,0,0,26.37,32l0,0a6.5,6.5,0,1,1-9,9.36Z" transform="translate(-177.57 -177.59)"/><path class="cls-2" d="M285.44,794.56" transform="translate(-177.57 -177.59)"/><path class="cls-2" d="M794.56,794.56" transform="translate(-177.57 -177.59)"/><path class="cls-1" d="M799.15,280.84A364.33,364.33,0,0,1,903.25,540,361.09,361.09,0,0,1,794.56,794.56,357.9,357.9,0,0,0,896.75,540,354.62,354.62,0,0,0,790,290a6.5,6.5,0,0,1,9.08-9.3Z" transform="translate(-177.57 -177.59)"/><path class="cls-1" d="M280.85,280.85c27.51-26.41,58.75-48.93,92.9-65.62l6.39-3.15,1.59-.79,1.63-.72,3.27-1.42,6.52-2.84,3.27-1.42,1.63-.71,1.66-.63,13.31-5,1.66-.62,1.69-.55,3.38-1.1,6.77-2.18L429.9,193c1.12-.37,2.25-.73,3.4-1l6.87-1.85c4.57-1.21,9.12-2.54,13.77-3.44s9.24-2.05,13.88-2.94l14-2.29c1.17-.18,2.33-.42,3.51-.55l3.52-.39,7-.8,7-.78,7.07-.44,7.07-.44,3.53-.21c1.18-.09,2.36-.05,3.54-.08l14.15-.15,1.77,0,1.77,0,3.53.1c2.36.09,4.72.09,7.07.25,4.7.29,9.41.5,14.1,1,9.39.74,18.73,2,28,3.51A360.26,360.26,0,0,1,701,217.94a358.79,358.79,0,0,0-107-32.25c-9.25-1.19-18.53-2.2-27.83-2.67-4.65-.34-9.31-.41-14-.56-2.33-.09-4.66,0-7-.05h-5.23l-1.75.07-13.94.56c-1.16.06-2.33.05-3.48.17l-3.48.32-6.94.63-6.94.63-6.91,1-6.89,1-3.45.49c-1.15.16-2.28.43-3.42.63l-13.67,2.65c-4.53,1-9,2.19-13.53,3.28s-8.94,2.44-13.38,3.76l-6.66,2c-1.11.31-2.21.69-3.3,1.09l-3.27,1.16-6.55,2.32-3.27,1.16-1.63.59-1.61.66-12.84,5.28-1.6.66-1.57.74-3.14,1.48-6.28,2.95-3.14,1.47-1.56.74-1.53.82-6.13,3.25C345.45,241.1,315.83,263.82,290,290l-.06,0a6.5,6.5,0,1,1-9.27-9.11Z" transform="translate(-177.57 -177.59)"/><path class="cls-1" d="M280.85,799.15c-26.49-27.6-49.08-58.95-65.78-93.23a345.9,345.9,0,0,1-21.17-53c-1.56-4.49-2.69-9.11-3.94-13.69l-1.85-6.88c-.32-1.14-.58-2.3-.82-3.47l-.75-3.48-1.51-7-.75-3.48-.37-1.74-.29-1.75-2.3-14a393.73,393.73,0,0,1-3.74-56.66c.18-9.45.55-18.91,1.46-28.32s2.08-18.79,3.61-28.1a360,360,0,0,1,35.93-106.7,358.61,358.61,0,0,0-32.72,107.19c-1.25,9.28-2.26,18.58-2.77,27.91s-.73,18.68-.63,28a385.25,385.25,0,0,0,5.28,55.65l2.65,13.72.33,1.71.42,1.69L192,617l1.67,6.78.83,3.39c.27,1.13.55,2.25.91,3.36l2,6.68c1.35,4.45,2.58,8.94,4.23,13.29a337.92,337.92,0,0,0,22.13,51c17.2,32.88,40,62.6,66.29,88.48l.06.06a6.5,6.5,0,0,1-9.12,9.27Z" transform="translate(-177.57 -177.59)"/><path class="cls-1" d="M292.64,663.69a284,284,0,0,1-14.4-35.06,275.73,275.73,0,0,1-13.74-74.28c-.12-3.15-.28-6.3-.27-9.45l0-4.73.13-4.73.3-9.45.75-9.43a273.57,273.57,0,0,1,53.19-139.37c.46-.63.9-1.28,1.39-1.9l1.46-1.85,2.93-3.69,2.94-3.69c1-1.25,2-2.38,3.06-3.58l6.21-7.09,6.53-6.79c1.1-1.12,2.16-2.29,3.3-3.36l3.43-3.23,3.42-3.24c1.14-1.07,2.27-2.16,3.48-3.16l7.15-6.13c.61-.51,1.19-1,1.8-1.52l1.86-1.44,3.72-2.89,3.72-2.89c1.22-1,2.55-1.83,3.82-2.75l7.7-5.41,7.94-5.05c1.33-.82,2.63-1.7,4-2.48l4.1-2.33a265.41,265.41,0,0,1,33.8-16.42l8.77-3.4c2.94-1.06,5.94-2,8.9-3l4.46-1.48,4.53-1.26c3-.83,6-1.7,9.06-2.5l9.16-2.06c1.53-.32,3.05-.73,4.59-1l4.63-.8L495,270c1.54-.25,3.07-.58,4.63-.74l9.32-1.13c3.1-.45,6.23-.57,9.35-.81L523,267c1.56-.12,3.12-.25,4.69-.24,6.25-.11,12.5-.38,18.75-.05a270.94,270.94,0,0,1,171,66.68c37.63,32.65,66.2,75.68,81,123.16a262.91,262.91,0,0,1,8.73,36.18c1.19,6.1,1.75,12.29,2.54,18.44.33,3.08.47,6.19.71,9.28l.33,4.64c.13,1.54.09,3.1.14,4.65l.18,9.3c0,3.1-.16,6.2-.23,9.29l-.15,4.65c0,1.55-.22,3.09-.32,4.64l-.76,9.26c-.33,3.09-.79,6.15-1.18,9.22l-.61,4.61c-.23,1.53-.55,3-.82,4.58l-1.68,9.13-2.13,9.05c-.36,1.5-.7,3-1.09,4.51l-1.29,4.46c-.88,3-1.68,6-2.63,8.91-2,5.84-3.9,11.75-6.33,17.45l-1.73,4.31-.86,2.15-1,2.12-3.86,8.43c-.62,1.42-1.36,2.78-2.07,4.15l-2.14,4.12-2.14,4.12c-.71,1.37-1.53,2.68-2.3,4l-4.67,8-5,7.78c-.86,1.28-1.65,2.62-2.56,3.86l-2.71,3.76-2.71,3.77c-.9,1.25-1.79,2.51-2.78,3.71l-5.76,7.25c-.94,1.23-2,2.39-3,3.54l-3,3.49-3.05,3.48c-1,1.18-2.13,2.24-3.18,3.37l-6.43,6.67,6.35-6.74c1.05-1.14,2.15-2.21,3.15-3.4l3-3.51,3-3.52c1-1.17,2-2.33,2.94-3.57l5.68-7.31c1-1.2,1.85-2.47,2.73-3.73l2.66-3.79,2.66-3.78c.9-1.26,1.68-2.6,2.52-3.89l5-7.81,4.57-8c.74-1.35,1.55-2.67,2.24-4l2.09-4.13,2.08-4.13c.69-1.37,1.42-2.73,2-4.15l3.76-8.45.94-2.11.83-2.15,1.67-4.31c2.36-5.7,4.14-11.6,6.12-17.44.91-2.94,1.67-5.92,2.51-8.88l1.24-4.45c.37-1.49.68-3,1-4.5l2-9,1.57-9.1c.25-1.52.55-3,.76-4.55l.56-4.58c.35-3.06.78-6.1,1.07-9.16l.65-9.21c.08-1.53.26-3.06.27-4.6l.09-4.61c0-3.08.17-6.15.14-9.23l-.29-9.21c-.06-1.54,0-3.08-.19-4.61l-.37-4.59c-.28-3.06-.45-6.13-.8-9.18-.86-6.09-1.47-12.21-2.73-18.23a259.22,259.22,0,0,0-9-35.68A268,268,0,0,0,582.73,276.7c-48.21-7.36-98.46-1.79-143.34,17.12a256.06,256.06,0,0,0-32.6,16.28l-3.94,2.3c-1.31.76-2.56,1.63-3.84,2.45l-7.64,5-7.4,5.33c-1.22.9-2.49,1.73-3.66,2.69l-3.57,2.84-3.57,2.83-1.78,1.42c-.59.48-1.15,1-1.72,1.49l-6.85,6c-1.16,1-2.24,2-3.33,3.1l-3.28,3.16-3.28,3.16c-1.09,1.05-2.09,2.19-3.15,3.29l-6.24,6.62-5.92,6.91c-1,1.17-2,2.27-2.92,3.49l-2.79,3.59-2.79,3.59-1.39,1.8c-.46.6-.88,1.24-1.32,1.85a264.81,264.81,0,0,0-22.15,274.89h0a6.5,6.5,0,0,1-11.59,5.9Z" transform="translate(-177.57 -177.59)"/></svg>